# xmcd CD database file
#
# Track frame offsets:
#	150
#	18568
#	33304
#	53027
#	65401
#	85394
#	100332
#	121099
#	135816
#	152502
#	171333
#	183160
#	202691
#	218675
#	233880
#	251663
#
# Disc length: 3579 seconds
#
# Revision: 0
# Processed by: cddbd v1.5.2PL0 Copyright (c) Steve Scherf et al.
# Submitted via: CDex 1.70beta2
#
DISCID=c80df910
DTITLE=Chris Whitley - Weed
DYEAR=2005
DGENRE=Blues
TTITLE0=Living With The Law
TTITLE1=Know You
TTITLE2=Phone Call From Leavenworth
TTITLE3=Cool Wooden Crosses
TTITLE4=Big Sky Country
TTITLE5=The New Machine
TTITLE6=Clear Blue Sky
TTITLE7=Bordertown
TTITLE8=Narcotic Prayer
TTITLE9=Kick The Stones
TTITLE10=Weightless
TTITLE11=I Forget You Everyday
TTITLE12=Make The Dirt Stick
TTITLE13=Dust Radio
TTITLE14=Can't Get Off (Instrumental)
TTITLE15=Power Down
EXTD=YEAR: 2005
EXTT0=
EXTT1=
EXTT2=
EXTT3=
EXTT4=
EXTT5=
EXTT6=
EXTT7=
EXTT8=
EXTT9=
EXTT10=
EXTT11=
EXTT12=
EXTT13=
EXTT14=
EXTT15=
PLAYORDER=
